<svg width="800" height="800" viewBox="0 0 24 24" fill="none" xmlns="http://www.w3.org/2000/svg">
  <path d="M15.207 4.504c3.329-1.53 4.993-2.296 5.789-1.5s.03 2.46-1.5 5.789l-.853 1.856c-.306.665-.459.997-.459 1.35 0 .355.153.687.459 1.352l.853 1.856c1.53 3.329 2.296 4.993 1.5 5.789s-2.46.03-5.789-1.5l-1.856-.853c-.665-.306-.997-.459-1.35-.459-.355 0-.687.153-1.352.459l-1.856.853c-3.329 1.53-4.993 2.296-5.789 1.5s-.03-2.46 1.5-5.789l.853-1.856c.306-.665.459-.997.459-1.351s-.153-.686-.459-1.351l-.853-1.856c-1.53-3.329-2.296-4.993-1.5-5.789s2.46-.03 5.789 1.5l1.856.853c.665.306.997.459 1.351.459s.686-.153 1.351-.459z" fill="#000"/>
</svg>
