<svg xmlns="http://www.w3.org/2000/svg" viewBox="0 0 353.846 353.846" xml:space="preserve">
  <path d="M277.573 78.331h-47.65c-4.142 0-7.5 3.357-7.5 7.5s3.358 7.5 7.5 7.5h47.65c31.381 0 56.911 25.53 56.911 56.91v86.423h-185v-86.423c0-23.14-10.998-43.748-28.028-56.91h50.647c4.142 0 7.5-3.357 7.5-7.5s-3.358-7.5-7.5-7.5H76.272c-39.652 0-71.911 32.259-71.911 71.91v93.923a7.5 7.5 0 0 0 7.5 7.5H187.3v87.182h-20.756v-61.923c0-4.143-3.358-7.5-7.5-7.5s-7.5 3.357-7.5 7.5v69.423a7.5 7.5 0 0 0 7.5 7.5H194.8a7.5 7.5 0 0 0 7.5-7.5v-94.682h139.683a7.5 7.5 0 0 0 7.5-7.5v-93.923c.001-39.651-32.258-71.91-71.91-71.91m-258.211 71.91c0-31.38 25.53-56.91 56.911-56.91h1.301c31.381 0 56.911 25.53 56.911 56.91v86.423H116.79v-81.667c0-4.143-3.358-7.5-7.5-7.5s-7.5 3.357-7.5 7.5v81.667H84.423v-81.667c0-4.143-3.358-7.5-7.5-7.5s-7.5 3.357-7.5 7.5v81.667H52.056v-81.667c0-4.143-3.358-7.5-7.5-7.5s-7.5 3.357-7.5 7.5v81.667H19.362z" stroke="black" stroke-width="0.3" fill="#0000000"/>
  <path d="M164.603 154.167c0 15.623 12.71 28.334 28.333 28.334s28.333-12.711 28.333-28.334c0-12.634-8.313-23.359-19.756-27.002V15h48.929v18.677h-37.274c-4.142 0-7.5 3.357-7.5 7.5s3.358 7.5 7.5 7.5h44.774a7.5 7.5 0 0 0 7.5-7.5V7.5a7.5 7.5 0 0 0-7.5-7.5h-63.929a7.5 7.5 0 0 0-7.5 7.5v119.077c-12.537 2.918-21.91 14.176-21.91 27.59m41.667 0c0 7.353-5.981 13.334-13.333 13.334s-13.333-5.981-13.333-13.334 5.981-13.333 13.333-13.333 13.333 5.981 13.333 13.333" stroke="black" stroke-width="0.3" fill="#0000000"/>
</svg>
